<?xml version="1.0" standalone="no"?>
<!DOCTYPE svg PUBLIC "-//W3C//DTD SVG 1.1//EN" "http://www.w3.org/Graphics/SVG/1.1/DTD/svg11.dtd" >
<svg xmlns="http://www.w3.org/2000/svg">
<metadata>
This is a custom SVG webfont generated by Font Squirrel.
Copyright   : Copyright Elementalist 2011
Designer    : Elementalist
Foundry     : httpfontstructcom
Foundry URL : httpwwwfontshopcom
</metadata>
<defs>
<font id="MonkeyRegular" horiz-adv-x="768" >
<font-face units-per-em="2048" ascent="1638" descent="-410" />
<missing-glyph horiz-adv-x="500" />
<glyph />
<glyph />
<glyph unicode=" " />
<glyph unicode="!" d="M256 64q0 26 18 44q18 20 46 20q26 0 44 -20q20 -18 20 -44q0 -28 -20 -46q-18 -18 -44 -18q-28 0 -46 18t-18 46zM256 384v896h128v-896l-64 -128z" />
<glyph unicode="&#x22;" d="M128 1024v256h128v-256l-64 -128zM384 1024v256h128v-256l-64 -128z" />
<glyph unicode="#" d="M0 256v128h128v128h-128v128h128v256h128v-256h128v256h128v-256h128v-128h-128v-128h128v-128h-128v-256h-128v256h-128v-256h-128v256h-128zM256 384h128v128h-128v-128z" />
<glyph unicode="$" d="M0 256h128q0 -54 36 -92q38 -36 92 -36v384q-108 0 -182 74t-74 182v128q0 106 74 180q74 76 182 76v128h128v-128q106 0 180 -76q76 -74 76 -180h-128q0 52 -38 90t-90 38v-384q106 0 180 -76q76 -74 76 -180v-128q0 -108 -76 -182q-74 -74 -180 -74v-128h-128v128 q-108 0 -182 74t-74 182zM128 768q0 -54 36 -92q38 -36 92 -36v384q-54 0 -92 -38q-36 -38 -36 -90v-128zM384 128q52 0 90 36q38 38 38 92v128q0 52 -38 90t-90 38v-384z" />
<glyph unicode="%" d="M0 128l512 1024h128l-512 -1024h-128zM0 768v256q0 106 74 180q74 76 182 76h128v-256q0 -108 -76 -182q-74 -74 -180 -74h-128zM128 896q52 0 90 36q38 38 38 92v128q-54 0 -92 -38q-36 -38 -36 -90v-128zM256 0v256q0 106 74 180q74 76 182 76h128v-256 q0 -108 -76 -182q-74 -74 -180 -74h-128zM384 128q52 0 90 36q38 38 38 92v128q-54 0 -92 -38q-36 -38 -36 -90v-128z" />
<glyph unicode="&#x26;" d="M0 256v384q0 106 74 180q6 6 12 10l-12 12q-74 74 -74 182q0 106 74 180q74 76 182 76q106 0 180 -76q76 -74 76 -180q0 -108 -76 -182q-42 -42 -96 -62q44 -62 44 -140v-128q0 -54 36 -92q38 -36 92 -36v256h128v-384q0 -108 -76 -182q-74 -74 -180 -74h-128 q-108 0 -182 74t-74 182zM128 256q0 -54 36 -92q38 -36 92 -36h128q52 0 90 36q38 38 38 92q-108 0 -182 74t-74 182v128q0 52 -38 90q-12 12 -26 20q-16 -8 -28 -20q-36 -38 -36 -90v-384zM128 1024q0 -54 36 -92q38 -36 92 -36q52 0 90 36q38 38 38 92q0 52 -38 90t-90 38 q-54 0 -92 -38q-36 -38 -36 -90z" />
<glyph unicode="'" d="M128 1024v256h128v-256l-64 -128z" />
<glyph unicode="(" d="M384 256v768q0 106 74 180q74 76 182 76v-128q-54 0 -92 -38q-36 -38 -36 -90v-768q0 -54 36 -92q38 -36 92 -36v-128q-108 0 -182 74t-74 182z" />
<glyph unicode=")" d="M0 0v128q52 0 90 36q38 38 38 92v768q0 52 -38 90t-90 38v128q106 0 180 -76q76 -74 76 -180v-768q0 -108 -76 -182q-74 -74 -180 -74z" />
<glyph unicode="*" d="M128 768l128 256h-128v128h128v128h128v-128h128v-128h-128l128 -256h-128l-64 128l-64 -128h-128z" />
<glyph unicode="+" d="M0 512v128h256v256h128v-256h256v-128h-256v-256h-128v256h-256z" />
<glyph unicode="," d="M128 -128q52 0 90 38t38 90q-54 0 -92 36q-36 38 -36 92q0 52 36 90q38 38 92 38q52 0 90 -38t38 -90v-128q0 -106 -76 -180q-74 -76 -180 -76v128z" />
<glyph unicode="-" d="M0 512v128h640v-128h-640z" />
<glyph unicode="." d="M128 128q0 52 36 90q38 38 92 38q52 0 90 -38t38 -90q0 -54 -38 -92q-38 -36 -90 -36q-54 0 -92 36q-36 38 -36 92z" />
<glyph unicode="/" d="M0 0v128l512 1024v128h128v-128l-512 -1024v-128h-128z" />
<glyph unicode="0" d="M0 256v768q0 106 74 180q74 76 182 76h128q106 0 180 -76q76 -74 76 -180v-768q0 -108 -76 -182q-74 -74 -180 -74h-128q-108 0 -182 74t-74 182zM128 256q0 -54 36 -92q38 -36 92 -36h128q52 0 90 36q38 38 38 92v768q0 52 -38 90t-90 38h-128q-54 0 -92 -38 q-36 -38 -36 -90v-768zM256 512v128l128 128v-128z" />
<glyph unicode="1" d="M0 0v128h256v1024l-256 -128v128l256 128h128v-1152h256v-128h-640z" />
<glyph unicode="2" d="M0 0v512q0 106 74 180q74 76 182 76h128q52 0 90 36q38 38 38 92v128q0 52 -38 90t-90 38h-128q-54 0 -92 -38q-36 -38 -36 -90h-128q0 106 74 180q74 76 182 76h128q106 0 180 -76q76 -74 76 -180v-128q0 -108 -76 -182q-74 -74 -180 -74h-128q-54 0 -92 -38 q-36 -38 -36 -90v-384h512v-128h-640z" />
<glyph unicode="3" d="M0 256h128q0 -54 36 -92q38 -36 92 -36h128q52 0 90 36q38 38 38 92v256q0 52 -38 90t-90 38h-64v128h64q52 0 90 36q38 38 38 92v128q0 52 -38 90t-90 38h-128q-54 0 -92 -38q-36 -38 -36 -90h-128q0 106 74 180q74 76 182 76h128q106 0 180 -76q76 -74 76 -180v-128 q0 -108 -76 -182q-6 -6 -12 -10l12 -12q76 -74 76 -180v-256q0 -108 -76 -182q-74 -74 -180 -74h-128q-108 0 -182 74t-74 182z" />
<glyph unicode="4" d="M0 640v640h128v-512h384v512h128v-1280h-128v640h-512z" />
<glyph unicode="5" d="M0 256h128q0 -54 36 -92q38 -36 92 -36h128q52 0 90 36q38 38 38 92v256q0 52 -38 90t-90 38h-384v640h640v-128h-512v-384h256q106 0 180 -76q76 -74 76 -180v-256q0 -108 -76 -182q-74 -74 -180 -74h-128q-108 0 -182 74t-74 182z" />
<glyph unicode="6" d="M0 256v768q0 106 74 180q74 76 182 76h128q106 0 180 -76q76 -74 76 -180h-128q0 52 -38 90t-90 38h-128q-54 0 -92 -38q-36 -38 -36 -90v-290q56 34 128 34h128q106 0 180 -76q76 -74 76 -180v-256q0 -108 -76 -182q-74 -74 -180 -74h-128q-108 0 -182 74t-74 182z M128 256q0 -54 36 -92q38 -36 92 -36h128q52 0 90 36q38 38 38 92v256q0 52 -38 90t-90 38h-128q-54 0 -92 -38q-36 -38 -36 -90v-256z" />
<glyph unicode="7" d="M0 0v128l512 1024h-512v128h640v-128l-576 -1152h-64z" />
<glyph unicode="8" d="M0 256v256q0 106 74 180q6 6 12 10l-12 12q-74 74 -74 182v128q0 106 74 180q74 76 182 76h128q106 0 180 -76q76 -74 76 -180v-128q0 -108 -76 -182q-6 -6 -12 -10l12 -12q76 -74 76 -180v-256q0 -108 -76 -182q-74 -74 -180 -74h-128q-108 0 -182 74t-74 182zM128 256 q0 -54 36 -92q38 -36 92 -36h128q52 0 90 36q38 38 38 92v256q0 52 -38 90t-90 38h-128q-54 0 -92 -38q-36 -38 -36 -90v-256zM128 896q0 -54 36 -92q38 -36 92 -36h128q52 0 90 36q38 38 38 92v128q0 52 -38 90t-90 38h-128q-54 0 -92 -38q-36 -38 -36 -90v-128z" />
<glyph unicode="9" d="M0 256h128q0 -54 36 -92q38 -36 92 -36h128q52 0 90 36q38 38 38 92v288q-58 -32 -128 -32h-128q-108 0 -182 74t-74 182v256q0 106 74 180q74 76 182 76h128q106 0 180 -76q76 -74 76 -180v-768q0 -108 -76 -182q-74 -74 -180 -74h-128q-108 0 -182 74t-74 182zM128 768 q0 -54 36 -92q38 -36 92 -36h128q52 0 90 36q38 38 38 92v256q0 52 -38 90t-90 38h-128q-54 0 -92 -38q-36 -38 -36 -90v-256z" />
<glyph unicode=":" d="M128 128q0 52 36 90q38 38 92 38q52 0 90 -38t38 -90q0 -54 -38 -92q-38 -36 -90 -36q-54 0 -92 36q-36 38 -36 92zM128 768q0 52 36 90q38 38 92 38q52 0 90 -38t38 -90q0 -54 -38 -92q-38 -36 -90 -36q-54 0 -92 36q-36 38 -36 92z" />
<glyph unicode=";" d="M128 -128q52 0 90 38t38 90q-54 0 -92 36q-36 38 -36 92q0 52 36 90q38 38 92 38q52 0 90 -38t38 -90v-128q0 -106 -76 -180q-74 -76 -180 -76v128zM128 768q0 52 36 90q38 38 92 38q52 0 90 -38t38 -90q0 -54 -38 -92q-38 -36 -90 -36q-54 0 -92 36q-36 38 -36 92z" />
<glyph unicode="&#x3c;" d="M128 640l256 512h128l-256 -512l256 -512h-128z" />
<glyph unicode="=" d="M0 384v128h640v-128h-640zM0 640v128h640v-128h-640z" />
<glyph unicode="&#x3e;" d="M128 128l256 512l-256 512h128l256 -512l-256 -512h-128z" />
<glyph unicode="?" d="M0 1024q0 106 74 180q74 76 182 76h128q106 0 180 -76q76 -74 76 -180v-128q0 -108 -76 -182q-74 -74 -180 -74v-384h-128v512h128q52 0 90 36q38 38 38 92v128q0 52 -38 90t-90 38h-128q-54 0 -92 -38q-36 -38 -36 -90h-128zM256 64q0 26 18 44q18 20 46 20q26 0 44 -20 q20 -18 20 -44q0 -28 -20 -46q-18 -18 -44 -18q-28 0 -46 18t-18 46z" />
<glyph unicode="@" d="M0 128v896q0 106 74 180q74 76 182 76h128q106 0 180 -76q76 -74 76 -180v-896h-128v32q-58 -32 -128 -32q-108 0 -182 74t-74 182q0 106 74 180q74 76 182 76h128v128q0 52 -38 90t-90 38q-54 0 -92 -38q-36 -38 -36 -90h-128q0 106 74 180q74 76 182 76q70 0 128 -34 v34q0 52 -38 90t-90 38h-128q-54 0 -92 -38q-36 -38 -36 -90v-896q0 -54 36 -92q38 -36 92 -36h384v-128h-384q-108 0 -182 76q-74 72 -74 180zM256 384q0 -54 36 -92q38 -36 92 -36q52 0 90 36q38 38 38 92v128h-128q-54 0 -92 -38q-36 -38 -36 -90z" />
<glyph unicode="A" d="M0 0v1024q0 106 74 180q74 76 182 76h128q106 0 180 -76q76 -74 76 -180v-1024h-128v640h-384v-640h-128zM128 768h384v256q0 52 -38 90t-90 38h-128q-54 0 -92 -38q-36 -38 -36 -90v-256z" />
<glyph unicode="B" d="M0 0v1280h384q106 0 180 -76q76 -74 76 -180v-128q0 -108 -76 -182q-6 -6 -12 -10l12 -12q76 -74 76 -180v-256q0 -108 -76 -182q-74 -74 -180 -74h-384zM128 128h256q52 0 90 36q38 38 38 92v256q0 52 -38 90t-90 38h-256v-512zM128 768h256q52 0 90 36q38 38 38 92v128 q0 52 -38 90t-90 38h-256v-384z" />
<glyph unicode="C" d="M0 256v768q0 106 74 180q74 76 182 76h128q106 0 180 -76q76 -74 76 -180v-128h-128v128q0 52 -38 90t-90 38h-128q-54 0 -92 -38q-36 -38 -36 -90v-768q0 -54 36 -92q38 -36 92 -36h128q52 0 90 36q38 38 38 92v128h128v-128q0 -108 -76 -182q-74 -74 -180 -74h-128 q-108 0 -182 74t-74 182z" />
<glyph unicode="D" d="M0 0v1280h384q106 0 180 -76q76 -74 76 -180v-768q0 -108 -76 -182q-74 -74 -180 -74h-384zM128 128h256q52 0 90 36q38 38 38 92v768q0 52 -38 90t-90 38h-256v-1024z" />
<glyph unicode="E" d="M0 0v1280h640v-128h-512v-384h384v-128h-384v-512h512v-128h-640z" />
<glyph unicode="F" d="M0 0v1280h640v-128h-512v-384h384v-128h-384v-640h-128z" />
<glyph unicode="G" d="M0 256v768q0 106 74 180q74 76 182 76h128q106 0 180 -76q76 -74 76 -180h-128q0 52 -38 90t-90 38h-128q-54 0 -92 -38q-36 -38 -36 -90v-768q0 -54 36 -92q38 -36 92 -36h128q52 0 90 36q38 38 38 92v256h-128v128h256v-384q0 -108 -76 -182q-74 -74 -180 -74h-128 q-108 0 -182 74t-74 182z" />
<glyph unicode="H" d="M0 0v1280h128v-512h384v512h128v-1280h-128v640h-384v-640h-128z" />
<glyph unicode="I" d="M0 0v128h256v1024h-256v128h640v-128h-256v-1024h256v-128h-640z" />
<glyph unicode="J" d="M0 256h128q0 -54 36 -92q38 -36 92 -36h128q52 0 90 36q38 38 38 92v1024h128v-1024q0 -108 -76 -182q-74 -74 -180 -74h-128q-108 0 -182 74t-74 182z" />
<glyph unicode="K" d="M0 0v1280h128v-768l384 768h128l-320 -640l320 -640h-128l-256 512l-128 -256v-256h-128z" />
<glyph unicode="L" d="M0 0v1280h128v-1152h512v-128h-640z" />
<glyph unicode="M" d="M0 0v1280h192l128 -256l128 256h192v-1280h-128v1152l-192 -384l-192 384v-1152h-128z" />
<glyph unicode="N" d="M0 0v1280h128l384 -768v768h128v-1280h-128v256l-384 768v-1024h-128z" />
<glyph unicode="O" d="M0 256v768q0 106 74 180q74 76 182 76h128q106 0 180 -76q76 -74 76 -180v-768q0 -108 -76 -182q-74 -74 -180 -74h-128q-108 0 -182 74t-74 182zM128 256q0 -54 36 -92q38 -36 92 -36h128q52 0 90 36q38 38 38 92v768q0 52 -38 90t-90 38h-128q-54 0 -92 -38 q-36 -38 -36 -90v-768z" />
<glyph unicode="P" d="M0 0v1280h384q106 0 180 -76q76 -74 76 -180v-128q0 -108 -76 -182q-74 -74 -180 -74h-256v-640h-128zM128 768h256q52 0 90 36q38 38 38 92v128q0 52 -38 90t-90 38h-256v-384z" />
<glyph unicode="Q" d="M0 256v768q0 106 74 180q74 76 182 76h128q106 0 180 -76q76 -74 76 -180v-768q0 -108 -76 -182q-8 -8 -18 -16l94 -186h-128l-68 134q-30 -6 -60 -6h-128q-108 0 -182 74t-74 182zM128 256q0 -54 36 -92q38 -36 92 -36h128l-128 256h128l102 -206q26 34 26 78v768 q0 52 -38 90t-90 38h-128q-54 0 -92 -38q-36 -38 -36 -90v-768z" />
<glyph unicode="R" d="M0 0v1280h384q106 0 180 -76q76 -74 76 -180v-128q0 -108 -76 -182q-74 -74 -180 -74h-64l320 -640h-128l-320 640h-64v-640h-128zM128 768h256q52 0 90 36q38 38 38 92v128q0 52 -38 90t-90 38h-256v-384z" />
<glyph unicode="S" d="M0 256h128q0 -54 36 -92q38 -36 92 -36h128q52 0 90 36q38 38 38 92v256q0 52 -38 90t-90 38h-128q-108 0 -182 74t-74 182v128q0 106 74 180q74 76 182 76h128q106 0 180 -76q76 -74 76 -180h-128q0 52 -38 90t-90 38h-128q-54 0 -92 -38q-36 -38 -36 -90v-128 q0 -54 36 -92q38 -36 92 -36h128q106 0 180 -76q76 -74 76 -180v-256q0 -108 -76 -182q-74 -74 -180 -74h-128q-108 0 -182 74t-74 182z" />
<glyph unicode="T" d="M0 1152v128h640v-128h-256v-1152h-128v1152h-256z" />
<glyph unicode="U" d="M0 256v1024h128v-1024q0 -54 36 -92q38 -36 92 -36h128q52 0 90 36q38 38 38 92v1024h128v-1024q0 -108 -76 -182q-74 -74 -180 -74h-128q-108 0 -182 74t-74 182z" />
<glyph unicode="V" d="M0 640v640h128v-640l192 -384l192 384v640h128v-640l-320 -640z" />
<glyph unicode="W" d="M0 256v1024h128v-1024q0 -54 36 -92q38 -36 92 -36v640h128v-640q52 0 90 36q38 38 38 92v1024h128v-1024q0 -108 -76 -182q-74 -74 -180 -74h-128q-108 0 -182 74t-74 182z" />
<glyph unicode="X" d="M0 0v128l256 512l-256 512v128h128v-128l192 -384l192 384v128h128v-128l-256 -512l256 -512v-128h-128v128l-192 384l-192 -384v-128h-128z" />
<glyph unicode="Y" d="M0 1152v128h128v-128l192 -384l192 384v128h128v-128l-256 -512v-640h-128v640z" />
<glyph unicode="Z" d="M0 0v128l512 1024h-512v128h640v-128l-512 -1024h512v-128h-640z" />
<glyph unicode="[" d="M256 -384v1664h384v-128h-256v-1408h256v-128h-384z" />
<glyph unicode="\" d="M0 1152v128h128v-128l512 -1024v-128h-128v128z" />
<glyph unicode="]" d="M0 -256h256v1408h-256v128h384v-1664h-384v128z" />
<glyph unicode="^" d="M128 768l256 512l256 -512h-128l-128 256l-128 -256h-128z" />
<glyph unicode="_" d="M0 0h640v-128h-640v128z" />
<glyph unicode="`" d="M128 1280h128l128 -256h-128z" />
<glyph unicode="a" d="M0 256q0 106 74 180q74 76 182 76h256v128q0 52 -38 90t-90 38h-128q-54 0 -92 -38q-36 -38 -36 -90h-128q0 106 74 180q74 76 182 76h128q106 0 180 -76q76 -74 76 -180v-640h-128v32q-58 -32 -128 -32h-128q-108 0 -182 74t-74 182zM128 256q0 -54 36 -92 q38 -36 92 -36h128q52 0 90 36q38 38 38 92v128h-256q-54 0 -92 -38q-36 -38 -36 -90z" />
<glyph unicode="b" d="M0 0v1280h128v-418q56 34 128 34h128q106 0 180 -76q76 -74 76 -180v-384q0 -108 -76 -182q-74 -74 -180 -74h-128q-72 0 -128 32v-32h-128zM128 256q0 -54 36 -92q38 -36 92 -36h128q52 0 90 36q38 38 38 92v384q0 52 -38 90t-90 38h-128q-54 0 -92 -38q-36 -38 -36 -90 v-384z" />
<glyph unicode="c" d="M0 256v384q0 106 74 180q74 76 182 76h128q106 0 180 -76q76 -74 76 -180h-128q0 52 -38 90t-90 38h-128q-54 0 -92 -38q-36 -38 -36 -90v-384q0 -54 36 -92q38 -36 92 -36h128q52 0 90 36q38 38 38 92h128q0 -108 -76 -182q-74 -74 -180 -74h-128q-108 0 -182 74 t-74 182z" />
<glyph unicode="d" d="M0 256v384q0 106 74 180q74 76 182 76h128q70 0 128 -34v418h128v-1280h-128v32q-58 -32 -128 -32h-128q-108 0 -182 74t-74 182zM128 256q0 -54 36 -92q38 -36 92 -36h128q52 0 90 36q38 38 38 92v384q0 52 -38 90t-90 38h-128q-54 0 -92 -38q-36 -38 -36 -90v-384z" />
<glyph unicode="e" d="M0 256v384q0 106 74 180q74 76 182 76h128q106 0 180 -76q76 -74 76 -180v-256h-512v-128q0 -54 36 -92q38 -36 92 -36h384v-128h-384q-108 0 -182 74t-74 182zM128 512h384v128q0 52 -38 90t-90 38h-128q-54 0 -92 -38q-36 -38 -36 -90v-128z" />
<glyph unicode="f" d="M0 768v128h128v128q0 106 74 180q74 76 182 76h256v-128h-256q-54 0 -92 -38q-36 -38 -36 -90v-128h384v-128h-384v-768h-128v768h-128z" />
<glyph unicode="g" d="M0 -256h384q52 0 90 38t38 90v160q-58 -32 -128 -32h-128q-108 0 -182 74t-74 182v384q0 106 74 180q74 76 182 76h128q70 0 128 -34v34h128v-1024q0 -106 -76 -180q-74 -76 -180 -76h-384v128zM128 256q0 -54 36 -92q38 -36 92 -36h128q52 0 90 36q38 38 38 92v384 q0 52 -38 90t-90 38h-128q-54 0 -92 -38q-36 -38 -36 -90v-384z" />
<glyph unicode="h" d="M0 0v1280h128v-418q56 34 128 34h128q106 0 180 -76q76 -74 76 -180v-640h-128v640q0 52 -38 90t-90 38h-128q-54 0 -92 -38q-36 -38 -36 -90v-640h-128z" />
<glyph unicode="i" d="M0 0v128h256v640h-256v128h384v-768h256v-128h-640zM256 1088q0 26 18 44q18 20 46 20q26 0 44 -20q20 -18 20 -44q0 -28 -20 -46q-18 -18 -44 -18q-28 0 -46 18t-18 46z" />
<glyph unicode="j" d="M0 0h128v-128q0 -52 36 -90q38 -38 92 -38h128q52 0 90 38t38 90v896h-256v128h384v-1024q0 -106 -76 -180q-74 -76 -180 -76h-128q-108 0 -182 76q-74 74 -74 180v128zM512 1088q0 26 18 44q18 20 46 20q26 0 44 -20q20 -18 20 -44q0 -28 -20 -46q-18 -18 -44 -18 q-28 0 -46 18t-18 46z" />
<glyph unicode="k" d="M0 0v1280h128v-768h192l192 384h128l-224 -448l224 -448h-128l-192 384h-192v-384h-128z" />
<glyph unicode="l" d="M0 1152v128h384v-1024q0 -54 36 -92q38 -36 92 -36h128v-128h-128q-108 0 -182 74t-74 182v896h-256z" />
<glyph unicode="m" d="M0 0v896h128v-34q56 34 128 34h128q106 0 180 -76q76 -74 76 -180v-640h-128v640q0 52 -38 90t-90 38v-768h-128v768q-54 0 -92 -38q-36 -38 -36 -90v-640h-128z" />
<glyph unicode="n" d="M0 0v896h128v-34q56 34 128 34h128q106 0 180 -76q76 -74 76 -180v-640h-128v640q0 52 -38 90t-90 38h-128q-54 0 -92 -38q-36 -38 -36 -90v-640h-128z" />
<glyph unicode="o" d="M0 256v384q0 106 74 180q74 76 182 76h128q106 0 180 -76q76 -74 76 -180v-384q0 -108 -76 -182q-74 -74 -180 -74h-128q-108 0 -182 74t-74 182zM128 256q0 -54 36 -92q38 -36 92 -36h128q52 0 90 36q38 38 38 92v384q0 52 -38 90t-90 38h-128q-54 0 -92 -38 q-36 -38 -36 -90v-384z" />
<glyph unicode="p" d="M0 -384v1280h128v-34q56 34 128 34h128q106 0 180 -76q76 -74 76 -180v-384q0 -108 -76 -182q-74 -74 -180 -74h-128q-72 0 -128 32v-416h-128zM128 256q0 -54 36 -92q38 -36 92 -36h128q52 0 90 36q38 38 38 92v384q0 52 -38 90t-90 38h-128q-54 0 -92 -38 q-36 -38 -36 -90v-384z" />
<glyph unicode="q" d="M0 256v384q0 106 74 180q74 76 182 76h128q70 0 128 -34v34h128v-1280h-128v416q-58 -32 -128 -32h-128q-108 0 -182 74t-74 182zM128 256q0 -54 36 -92q38 -36 92 -36h128q52 0 90 36q38 38 38 92v384q0 52 -38 90t-90 38h-128q-54 0 -92 -38q-36 -38 -36 -90v-384z" />
<glyph unicode="r" d="M0 0v896h128v-34q56 34 128 34h128q106 0 180 -76q76 -74 76 -180h-128q0 52 -38 90t-90 38h-128q-54 0 -92 -38q-36 -38 -36 -90v-640h-128z" />
<glyph unicode="s" d="M0 256h128q0 -54 36 -92q38 -36 92 -36h128q52 0 90 36q38 38 38 92q0 52 -38 90t-90 38h-128q-108 0 -182 74t-74 182q0 106 74 180q74 76 182 76h128q106 0 180 -76q76 -74 76 -180h-128q0 52 -38 90t-90 38h-128q-54 0 -92 -38q-36 -38 -36 -90q0 -54 36 -92 q38 -36 92 -36h128q106 0 180 -76q76 -74 76 -180q0 -108 -76 -182q-74 -74 -180 -74h-128q-108 0 -182 74t-74 182z" />
<glyph unicode="t" d="M0 768v128h128v384h128v-384h384v-128h-384v-512q0 -54 36 -92q38 -36 92 -36h256v-128h-256q-108 0 -182 74t-74 182v512h-128z" />
<glyph unicode="u" d="M0 256v640h128v-640q0 -54 36 -92q38 -36 92 -36h128q52 0 90 36q38 38 38 92v640h128v-896h-128v32q-58 -32 -128 -32h-128q-108 0 -182 74t-74 182z" />
<glyph unicode="v" d="M0 512v384h128v-384l192 -384l192 384v384h128v-384l-256 -512h-128z" />
<glyph unicode="w" d="M0 256v640h128v-640q0 -54 36 -92q38 -36 92 -36v512h128v-512q52 0 90 36q38 38 38 92v640h128v-640q0 -108 -76 -182q-74 -74 -180 -74h-128q-108 0 -182 74t-74 182z" />
<glyph unicode="x" d="M0 0l224 448l-224 448h128l192 -384l192 384h128l-224 -448l224 -448h-128l-192 384l-192 -384h-128z" />
<glyph unicode="y" d="M0 -256h384q52 0 90 38t38 90v160q-58 -32 -128 -32h-128q-108 0 -182 74t-74 182v640h128v-640q0 -54 36 -92q38 -36 92 -36h128q52 0 90 36q38 38 38 92v640h128v-1024q0 -106 -76 -180q-74 -76 -180 -76h-384v128z" />
<glyph unicode="z" d="M0 0v128l128 256h-128v128h384l128 256h-512v128h640v-128l-128 -256h128v-128h-384l-128 -256h512v-128h-640z" />
<glyph unicode="{" d="M256 640v128q52 0 90 36q38 38 38 92v128q0 106 74 180q74 76 182 76v-128q-54 0 -92 -38q-36 -38 -36 -90v-128q0 -108 -76 -182q-6 -6 -12 -10l12 -12q76 -74 76 -180v-256q0 -54 36 -92q38 -36 92 -36v-128q-108 0 -182 74t-74 182v256q0 52 -38 90t-90 38z" />
<glyph unicode="|" d="M256 -384v1664h128v-1664h-128z" />
<glyph unicode="}" d="M0 0v128q52 0 90 36q38 38 38 92v256q0 106 74 180q6 6 12 10l-12 12q-74 74 -74 182v128q0 52 -38 90t-90 38v128q106 0 180 -76q76 -74 76 -180v-128q0 -54 36 -92q38 -36 92 -36v-128q-54 0 -92 -38q-36 -38 -36 -90v-256q0 -108 -76 -182q-74 -74 -180 -74z" />
<glyph unicode="~" d="M0 512q0 106 74 180q74 76 182 76h128v-128q52 0 90 36q38 38 38 92h128q0 -108 -76 -182q-74 -74 -180 -74h-128v128q-54 0 -92 -38q-36 -38 -36 -90h-128z" />
<glyph unicode="&#xa0;" />
<glyph unicode="&#xa9;" d="M0 384v512q0 106 74 180q74 76 182 76h128q106 0 180 -76q76 -74 76 -180v-512q0 -108 -76 -182q-74 -74 -180 -74h-128q-108 0 -182 74t-74 182zM128 384q0 -54 36 -92q38 -36 92 -36h128q52 0 90 36q38 38 38 92h-128q-108 0 -182 74t-74 182q0 106 74 180 q74 76 182 76h128q0 52 -38 90t-90 38h-128q-54 0 -92 -38q-36 -38 -36 -90v-512zM256 640q0 -54 36 -92q38 -36 92 -36h128v256h-128q-54 0 -92 -38q-36 -38 -36 -90z" />
<glyph unicode="&#xad;" d="M0 512v128h640v-128h-640z" />
<glyph unicode="&#xae;" d="M0 384v512q0 106 74 180q74 76 182 76h128q106 0 180 -76q76 -74 76 -180v-512q0 -108 -76 -182q-74 -74 -180 -74h-128q-108 0 -182 74t-74 182zM128 384q0 -54 36 -92q12 -12 26 -20h2v624h64q106 0 180 -76q76 -74 76 -180v256q0 52 -38 90t-90 38h-128q-54 0 -92 -38 q-36 -38 -36 -90v-512zM256 256h128l-128 256v-256zM256 640h128q0 52 -38 90t-90 38v-128zM384 512l102 -206q26 34 26 78v128h-128z" />
<glyph unicode="&#x400;" d="M0 512v128h768v-128h-768z" />
<glyph unicode="&#x401;" d="M0 384v256h768v-256h-768z" />
<glyph unicode="&#x402;" d="M256 -384v1792h128v-1792h-128z" />
<glyph unicode="&#x403;" d="M256 -384v1792h256v-1792h-256z" />
<glyph unicode="&#x404;" d="M0 512v128h128v-128h-128zM256 512v128h256v-128h-256zM640 512v128h128v-128h-128z" />
<glyph unicode="&#x405;" d="M0 384v256h128v-256h-128zM256 384v256h256v-256h-256zM640 384v256h128v-256h-128z" />
<glyph unicode="&#x406;" d="M256 0h128v-384h-128v384zM256 128v768h128v-768h-128zM256 1024v384h128v-384h-128z" />
<glyph unicode="&#x407;" d="M256 0h256v-384h-256v384zM256 128v768h256v-768h-256zM256 1024v384h256v-384h-256z" />
<glyph unicode="&#x408;" d="M0 512v128h128v-128h-128zM256 512v128h128v-128h-128zM512 512v128h128v-128h-128z" />
<glyph unicode="&#x409;" d="M0 384v256h128v-256h-128zM256 384v256h128v-256h-128zM512 384v256h128v-256h-128z" />
<glyph unicode="&#x40a;" d="M256 0v128h128v-128h-128zM256 -128h128v-128h-128v128zM256 256v128h128v-128h-128zM256 512v128h128v-128h-128zM256 768v128h128v-128h-128zM256 1024v128h128v-128h-128zM256 1280v128h128v-128h-128z" />
<glyph unicode="&#x40b;" d="M256 0v128h256v-128h-256zM256 -128h256v-128h-256v128zM256 256v128h256v-128h-256zM256 512v128h256v-128h-256zM256 768v128h256v-128h-256zM256 1024v128h256v-128h-256zM256 1280v128h256v-128h-256z" />
<glyph unicode="&#x40c;" d="M256 -384v1024h512v-128h-384v-896h-128z" />
<glyph unicode="&#x40d;" d="M256 -384v1024h512v-256h-384v-768h-128z" />
<glyph unicode="&#x40e;" d="M256 -384v1024h512v-128h-256v-896h-256z" />
<glyph unicode="&#x40f;" d="M256 -384v1024h512v-256h-256v-768h-256z" />
<glyph unicode="&#x410;" d="M0 512v128h384v-1024h-128v896h-256z" />
<glyph unicode="&#x411;" d="M0 384v256h384v-1024h-128v768h-256z" />
<glyph unicode="&#x412;" d="M0 512v128h512v-1024h-256v896h-256z" />
<glyph unicode="&#x413;" d="M0 384v256h512v-1024h-256v768h-256z" />
<glyph unicode="&#x414;" d="M256 512v896h128v-768h384v-128h-512z" />
<glyph unicode="&#x415;" d="M256 384v1024h128v-768h384v-256h-512z" />
<glyph unicode="&#x416;" d="M256 512v896h256v-768h256v-128h-512z" />
<glyph unicode="&#x417;" d="M256 384v1024h256v-768h256v-256h-512z" />
<glyph unicode="&#x418;" d="M0 512v128h256v768h128v-896h-384z" />
<glyph unicode="&#x419;" d="M0 384v256h256v768h128v-1024h-384z" />
<glyph unicode="&#x41a;" d="M0 512v128h256v768h256v-896h-512z" />
<glyph unicode="&#x41b;" d="M0 384v256h256v768h256v-1024h-512z" />
<glyph unicode="&#x41c;" d="M256 -384v1792h128v-768h384v-128h-384v-896h-128z" />
<glyph unicode="&#x41d;" d="M256 -384v1792h128v-768h384v-256h-384v-768h-128z" />
<glyph unicode="&#x41e;" d="M256 -384v1792h256v-768h256v-128h-384v-896h-128z" />
<glyph unicode="&#x41f;" d="M256 -384v1792h128v-768h384v-128h-256v-896h-256z" />
<glyph unicode="&#x420;" d="M256 -384v1792h256v-768h256v-128h-256v-896h-256z" />
<glyph unicode="&#x421;" d="M256 -384v1792h256v-768h256v-256h-384v-768h-128z" />
<glyph unicode="&#x422;" d="M256 -384v1792h128v-768h384v-256h-256v-768h-256z" />
<glyph unicode="&#x423;" d="M256 -384v1792h256v-768h256v-256h-256v-768h-256z" />
<glyph unicode="&#x424;" d="M0 512v128h256v768h128v-1792h-128v896h-256z" />
<glyph unicode="&#x425;" d="M0 384v256h256v768h128v-1792h-128v768h-256z" />
<glyph unicode="&#x426;" d="M0 512v128h256v768h256v-896h-128v-896h-128v896h-256z" />
<glyph unicode="&#x427;" d="M0 512v128h256v768h128v-768h128v-1024h-256v896h-256z" />
<glyph unicode="&#x428;" d="M0 512v128h256v768h256v-1792h-256v896h-256z" />
<glyph unicode="&#x429;" d="M0 384v256h256v768h256v-1024h-128v-768h-128v768h-256z" />
<glyph unicode="&#x42a;" d="M0 384v256h256v768h128v-768h128v-1024h-256v768h-256z" />
<glyph unicode="&#x42b;" d="M0 384v256h256v768h256v-1792h-256v768h-256z" />
<glyph unicode="&#x42c;" d="M0 512v128h768v-128h-384v-896h-128v896h-256z" />
<glyph unicode="&#x42d;" d="M0 384v256h768v-128h-384v-896h-128v768h-256z" />
<glyph unicode="&#x42e;" d="M0 512v128h768v-256h-384v-768h-128v896h-256z" />
<glyph unicode="&#x42f;" d="M0 384v256h768v-256h-384v-768h-128v768h-256z" />
<glyph unicode="&#x430;" d="M0 512v128h768v-128h-256v-896h-256v896h-256z" />
<glyph unicode="&#x431;" d="M0 384v256h768v-128h-256v-896h-256v768h-256z" />
<glyph unicode="&#x432;" d="M0 512v128h768v-256h-256v-768h-256v896h-256z" />
<glyph unicode="&#x433;" d="M0 384v256h768v-256h-256v-768h-256v768h-256z" />
<glyph unicode="&#x434;" d="M0 512v128h256v768h128v-768h384v-128h-768z" />
<glyph unicode="&#x435;" d="M0 384v256h256v768h128v-768h384v-128h-384v-128h-384z" />
<glyph unicode="&#x436;" d="M0 512v128h256v768h128v-768h384v-256h-512v128h-256z" />
<glyph unicode="&#x437;" d="M0 384v256h256v768h128v-768h384v-256h-768z" />
<glyph unicode="&#x438;" d="M0 512v128h256v768h256v-768h256v-128h-768z" />
<glyph unicode="&#x439;" d="M0 384v256h256v768h256v-768h256v-128h-256v-128h-512z" />
<glyph unicode="&#x43a;" d="M0 512v128h256v768h256v-768h256v-256h-512v128h-256z" />
<glyph unicode="&#x43b;" d="M0 384v256h256v768h256v-768h256v-256h-768z" />
<glyph unicode="&#x43c;" d="M0 512v128h256v768h128v-768h384v-128h-384v-896h-128v896h-256z" />
<glyph unicode="&#x43d;" d="M0 384v256h256v768h128v-768h384v-128h-384v-896h-128v768h-256z" />
<glyph unicode="&#x43e;" d="M0 512v128h256v768h128v-768h384v-256h-384v-768h-128v896h-256z" />
<glyph unicode="&#x43f;" d="M0 384v256h256v768h128v-768h384v-256h-384v-768h-128v768h-256z" />
<glyph unicode="&#x440;" d="M0 512v128h256v768h256v-768h256v-128h-384v-896h-128v896h-256z" />
<glyph unicode="&#x441;" d="M0 512v128h256v768h128v-768h384v-128h-256v-896h-256v896h-256z" />
<glyph unicode="&#x442;" d="M0 512v128h256v768h256v-768h256v-128h-256v-896h-256v896h-256z" />
<glyph unicode="&#x443;" d="M0 384v256h256v768h256v-768h256v-128h-256v-128h-128v-768h-128v768h-256z" />
<glyph unicode="&#x444;" d="M0 512v128h256v768h256v-768h256v-256h-384v-768h-128v896h-256z" />
<glyph unicode="&#x445;" d="M0 384v256h256v768h128v-768h384v-128h-256v-896h-256v768h-256z" />
<glyph unicode="&#x446;" d="M0 512v128h256v768h128v-768h384v-256h-256v-768h-256v896h-256z" />
<glyph unicode="&#x447;" d="M0 384v256h256v768h256v-768h256v-256h-384v-768h-128v768h-256z" />
<glyph unicode="&#x448;" d="M0 384v256h256v768h128v-768h384v-256h-256v-768h-256v768h-256z" />
<glyph unicode="&#x449;" d="M0 384v256h256v768h256v-768h256v-128h-256v-896h-256v768h-256z" />
<glyph unicode="&#x44a;" d="M0 512v128h256v768h256v-768h256v-256h-256v-768h-256v896h-256z" />
<glyph unicode="&#x44b;" d="M0 384v256h256v768h256v-768h256v-256h-256v-768h-256v768h-256z" />
<glyph unicode="&#x44c;" d="M0 512v128h256v-128h-256zM512 512v128h256v-128h-256z" />
<glyph unicode="&#x44d;" d="M0 384v256h256v-256h-256zM512 384v256h256v-256h-256z" />
<glyph unicode="&#x44e;" d="M256 128h128v-512h-128v512zM256 896v512h128v-512h-128z" />
<glyph unicode="&#x44f;" d="M256 128h256v-512h-256v512zM256 896v512h256v-512h-256z" />
<glyph unicode="&#x450;" d="M0 256v128h768v-128h-768zM0 640v128h768v-128h-768z" />
<glyph unicode="&#x451;" d="M128 -384v1792h128v-1792h-128zM512 -384v1792h128v-1792h-128z" />
<glyph unicode="&#x452;" d="M256 -384v1152h512v-128h-384v-256h384v-128h-384v-640h-128z" />
<glyph unicode="&#x453;" d="M128 -384v1024h640v-128h-128v-896h-128v896h-256v-896h-128z" />
<glyph unicode="&#x454;" d="M128 -384v1152h640v-128h-512v-1024h-128zM512 -384v768h256v-128h-128v-640h-128z" />
<glyph unicode="&#x455;" d="M0 256v128h256v256h-256v128h384v-1152h-128v640h-256z" />
<glyph unicode="&#x456;" d="M0 256v128h256v-768h-128v640h-128zM0 640v128h640v-1152h-128v1024h-512z" />
<glyph unicode="&#x457;" d="M0 256v128h256v-768h-128v640h-128zM0 640v128h640v-1152h-128v1024h-512z" />
<glyph unicode="&#x458;" d="M256 256v1152h128v-640h384v-128h-384v-256h384v-128h-512z" />
<glyph unicode="&#x459;" d="M128 512v896h128v-768h256v768h128v-768h128v-128h-640z" />
<glyph unicode="&#x45a;" d="M128 256v1152h128v-1024h512v-128h-640zM512 640v768h128v-640h128v-128h-256z" />
<glyph unicode="&#x45b;" d="M0 256v128h256v256h-256v128h256v640h128v-1152h-384z" />
<glyph unicode="&#x45c;" d="M0 512v128h128v768h128v-768h256v768h128v-896h-640z" />
<glyph unicode="&#x45d;" d="M0 256v128h512v1024h128v-1152h-640zM0 640v128h128v640h128v-768h-256z" />
<glyph unicode="&#x45e;" d="M256 -384v1792h128v-640h384v-128h-384v-256h384v-128h-384v-640h-128z" />
<glyph unicode="&#x45f;" d="M128 -384v1792h128v-1792h-128zM512 -384v1792h128v-768h128v-128h-128v-896h-128z" />
<glyph unicode="&#x460;" d="M128 -384v1792h128v-1792h-128zM512 -384v768h256v-128h-128v-640h-128zM512 640v768h128v-640h128v-128h-256z" />
<glyph unicode="&#x461;" d="M0 256v128h256v256h-256v128h256v640h128v-1792h-128v640h-256z" />
<glyph unicode="&#x462;" d="M0 512v128h128v768h128v-1792h-128v896h-128zM512 -384v1792h128v-1792h-128z" />
<glyph unicode="&#x463;" d="M0 256v128h256v-768h-128v640h-128zM0 640v128h128v640h128v-768h-256zM512 -384v1792h128v-1792h-128z" />
<glyph unicode="&#x464;" d="M0 256v128h768v-128h-384v-640h-128v640h-256zM0 640v128h768v-128h-768z" />
<glyph unicode="&#x465;" d="M0 512v128h768v-128h-128v-896h-128v896h-256v-896h-128v896h-128z" />
<glyph unicode="&#x466;" d="M0 256v128h256v-768h-128v640h-128zM0 640v128h768v-128h-768zM512 -384v768h256v-128h-128v-640h-128z" />
<glyph unicode="&#x467;" d="M0 256v128h768v-128h-768zM0 640v128h256v640h128v-640h384v-128h-768z" />
<glyph unicode="&#x468;" d="M0 512v128h128v768h128v-768h256v768h128v-768h128v-128h-768z" />
<glyph unicode="&#x469;" d="M0 256v128h768v-128h-768zM0 640v128h128v640h128v-768h-256zM512 640v768h128v-640h128v-128h-256z" />
<glyph unicode="&#x46a;" d="M0 256v128h256v256h-256v128h256v640h128v-640h384v-128h-384v-256h384v-128h-384v-640h-128v640h-256z" />
<glyph unicode="&#x46b;" d="M0 512v128h128v768h128v-768h256v768h128v-768h128v-128h-128v-896h-128v896h-256v-896h-128v896h-128z" />
<glyph unicode="&#x46c;" d="M0 256v128h256v-768h-128v640h-128zM0 640v128h128v640h128v-768h-256zM512 -384v768h256v-128h-128v-640h-128zM512 640v768h128v-640h128v-128h-256z" />
<glyph unicode="&#x46d;" d="M256 -384v768q0 106 74 180q74 76 182 76h256v-128h-256q-54 0 -92 -38q-36 -38 -36 -90v-768h-128z" />
<glyph unicode="&#x46e;" d="M0 512v128h128q106 0 180 -76q76 -74 76 -180v-768h-128v768q0 52 -38 90t-90 38h-128z" />
<glyph unicode="&#x46f;" d="M0 512v128h128q52 0 90 36q38 38 38 92v640h128v-640q0 -108 -76 -182q-74 -74 -180 -74h-128z" />
<glyph unicode="&#x470;" d="M256 768v640h128v-640q0 -54 36 -92q38 -36 92 -36h256v-128h-256q-108 0 -182 74t-74 182z" />
<glyph unicode="&#x471;" d="M0 -128l640 1280v256h128v-256l-640 -1280v-256h-128v256z" />
<glyph unicode="&#x472;" d="M0 1152v256h128v-256l640 -1280v-256h-128v256z" />
<glyph unicode="&#x473;" d="M0 -128l320 640l-320 640v256h128v-256l256 -512l256 512v256h128v-256l-320 -640l320 -640v-256h-128v256l-256 512l-256 -512v-256h-128v256z" />
<glyph unicode="&#x474;" d="M0 512v128h384v-128h-384z" />
<glyph unicode="&#x475;" d="M256 512v896h128v-896h-128z" />
<glyph unicode="&#x476;" d="M384 512v128h384v-128h-384z" />
<glyph unicode="&#x477;" d="M256 -384v896h128v-896h-128z" />
<glyph unicode="&#x478;" d="M0 384v256h384v-256h-384z" />
<glyph unicode="&#x479;" d="M256 512v896h256v-896h-256z" />
<glyph unicode="&#x47a;" d="M384 384v256h384v-256h-384z" />
<glyph unicode="&#x47b;" d="M256 -384v896h256v-896h-256z" />
<glyph unicode="&#x47c;" d="M0 512v128h768v-256h-384v128h-384z" />
<glyph unicode="&#x47d;" d="M256 -384v1792h128v-896h128v-896h-256z" />
<glyph unicode="&#x47e;" d="M0 384v256h768v-128h-384v-128h-384z" />
<glyph unicode="&#x47f;" d="M256 -384v1792h256v-896h-128v-896h-128z" />
<glyph unicode="&#x2000;" horiz-adv-x="704" />
<glyph unicode="&#x2001;" horiz-adv-x="1408" />
<glyph unicode="&#x2002;" horiz-adv-x="704" />
<glyph unicode="&#x2003;" horiz-adv-x="1408" />
<glyph unicode="&#x2004;" horiz-adv-x="468" />
<glyph unicode="&#x2005;" horiz-adv-x="352" />
<glyph unicode="&#x2006;" horiz-adv-x="234" />
<glyph unicode="&#x2007;" horiz-adv-x="234" />
<glyph unicode="&#x2008;" horiz-adv-x="176" />
<glyph unicode="&#x2009;" horiz-adv-x="280" />
<glyph unicode="&#x200a;" horiz-adv-x="78" />
<glyph unicode="&#x2010;" d="M0 512v128h640v-128h-640z" />
<glyph unicode="&#x2011;" d="M0 512v128h640v-128h-640z" />
<glyph unicode="&#x2012;" d="M0 512v128h640v-128h-640z" />
<glyph unicode="&#x2013;" horiz-adv-x="1152" d="M0 512v128h1024v-128h-1024z" />
<glyph unicode="&#x2014;" horiz-adv-x="2176" d="M0 512v128h2048v-128h-2048z" />
<glyph unicode="&#x2018;" d="M128 896v128q0 106 74 180q74 76 182 76v-128q-54 0 -92 -38q-36 -38 -36 -90q52 0 90 -38t38 -90q0 -54 -38 -92q-38 -36 -90 -36q-54 0 -92 36q-36 38 -36 92z" />
<glyph unicode="&#x2019;" d="M128 768v128q52 0 90 36q38 38 38 92q-54 0 -92 36q-36 38 -36 92q0 52 36 90q38 38 92 38q52 0 90 -38t38 -90v-128q0 -108 -76 -182q-74 -74 -180 -74z" />
<glyph unicode="&#x201c;" d="M0 896v128q0 106 74 180q74 76 182 76v-128q-54 0 -92 -38q-36 -38 -36 -90q52 0 90 -38t38 -90q0 -54 -38 -92q-38 -36 -90 -36q-54 0 -92 36q-36 38 -36 92zM384 896v128q0 106 74 180q74 76 182 76v-128q-54 0 -92 -38q-36 -38 -36 -90q52 0 90 -38t38 -90 q0 -54 -38 -92q-38 -36 -90 -36q-54 0 -92 36q-36 38 -36 92z" />
<glyph unicode="&#x201d;" d="M0 768v128q52 0 90 36q38 38 38 92q-54 0 -92 36q-36 38 -36 92q0 52 36 90q38 38 92 38q52 0 90 -38t38 -90v-128q0 -108 -76 -182q-74 -74 -180 -74zM384 768v128q52 0 90 36q38 38 38 92q-54 0 -92 36q-36 38 -36 92q0 52 36 90q38 38 92 38q52 0 90 -38t38 -90v-128 q0 -108 -76 -182q-74 -74 -180 -74z" />
<glyph unicode="&#x202f;" horiz-adv-x="280" />
<glyph unicode="&#x205f;" horiz-adv-x="352" />
<glyph unicode="&#x2122;" d="M0 0v640h192l128 -256l128 256h192v-640h-128v512l-128 -256h-128l-128 256v-512h-128zM0 1152v128h640v-128h-256v-512h-128v512h-256z" />
<glyph unicode="&#x2500;" d="M0 512v128h768v-128h-768z" />
<glyph unicode="&#x2501;" d="M0 384v256h768v-256h-768z" />
<glyph unicode="&#x2502;" d="M256 -384v1792h128v-1792h-128z" />
<glyph unicode="&#x2503;" d="M256 -384v1792h256v-1792h-256z" />
<glyph unicode="&#x2504;" d="M0 512v128h128v-128h-128zM256 512v128h256v-128h-256zM640 512v128h128v-128h-128z" />
<glyph unicode="&#x2505;" d="M0 384v256h128v-256h-128zM256 384v256h256v-256h-256zM640 384v256h128v-256h-128z" />
<glyph unicode="&#x2506;" d="M256 0h128v-384h-128v384zM256 128v768h128v-768h-128zM256 1024v384h128v-384h-128z" />
<glyph unicode="&#x2507;" d="M256 0h256v-384h-256v384zM256 128v768h256v-768h-256zM256 1024v384h256v-384h-256z" />
<glyph unicode="&#x2508;" d="M0 512v128h128v-128h-128zM256 512v128h128v-128h-128zM512 512v128h128v-128h-128z" />
<glyph unicode="&#x2509;" d="M0 384v256h128v-256h-128zM256 384v256h128v-256h-128zM512 384v256h128v-256h-128z" />
<glyph unicode="&#x250a;" d="M256 0v128h128v-128h-128zM256 -128h128v-128h-128v128zM256 256v128h128v-128h-128zM256 512v128h128v-128h-128zM256 768v128h128v-128h-128zM256 1024v128h128v-128h-128zM256 1280v128h128v-128h-128z" />
<glyph unicode="&#x250b;" d="M256 0v128h256v-128h-256zM256 -128h256v-128h-256v128zM256 256v128h256v-128h-256zM256 512v128h256v-128h-256zM256 768v128h256v-128h-256zM256 1024v128h256v-128h-256zM256 1280v128h256v-128h-256z" />
<glyph unicode="&#x250c;" d="M256 -384v1024h512v-128h-384v-896h-128z" />
<glyph unicode="&#x250d;" d="M256 -384v1024h512v-256h-384v-768h-128z" />
<glyph unicode="&#x250e;" d="M256 -384v1024h512v-128h-256v-896h-256z" />
<glyph unicode="&#x250f;" d="M256 -384v1024h512v-256h-256v-768h-256z" />
<glyph unicode="&#x2510;" d="M0 512v128h384v-1024h-128v896h-256z" />
<glyph unicode="&#x2511;" d="M0 384v256h384v-1024h-128v768h-256z" />
<glyph unicode="&#x2512;" d="M0 512v128h512v-1024h-256v896h-256z" />
<glyph unicode="&#x2513;" d="M0 384v256h512v-1024h-256v768h-256z" />
<glyph unicode="&#x2514;" d="M256 512v896h128v-768h384v-128h-512z" />
<glyph unicode="&#x2515;" d="M256 384v1024h128v-768h384v-256h-512z" />
<glyph unicode="&#x2516;" d="M256 512v896h256v-768h256v-128h-512z" />
<glyph unicode="&#x2517;" d="M256 384v1024h256v-768h256v-256h-512z" />
<glyph unicode="&#x2518;" d="M0 512v128h256v768h128v-896h-384z" />
<glyph unicode="&#x2519;" d="M0 384v256h256v768h128v-1024h-384z" />
<glyph unicode="&#x251a;" d="M0 512v128h256v768h256v-896h-512z" />
<glyph unicode="&#x251b;" d="M0 384v256h256v768h256v-1024h-512z" />
<glyph unicode="&#x251c;" d="M256 -384v1792h128v-768h384v-128h-384v-896h-128z" />
<glyph unicode="&#x251d;" d="M256 -384v1792h128v-768h384v-256h-384v-768h-128z" />
<glyph unicode="&#x251e;" d="M256 -384v1792h256v-768h256v-128h-384v-896h-128z" />
<glyph unicode="&#x251f;" d="M256 -384v1792h128v-768h384v-128h-256v-896h-256z" />
<glyph unicode="&#x2520;" d="M256 -384v1792h256v-768h256v-128h-256v-896h-256z" />
<glyph unicode="&#x2521;" d="M256 -384v1792h256v-768h256v-256h-384v-768h-128z" />
<glyph unicode="&#x2522;" d="M256 -384v1792h128v-768h384v-256h-256v-768h-256z" />
<glyph unicode="&#x2523;" d="M256 -384v1792h256v-768h256v-256h-256v-768h-256z" />
<glyph unicode="&#x2524;" d="M0 512v128h256v768h128v-1792h-128v896h-256z" />
<glyph unicode="&#x2525;" d="M0 384v256h256v768h128v-1792h-128v768h-256z" />
<glyph unicode="&#x2526;" d="M0 512v128h256v768h256v-896h-128v-896h-128v896h-256z" />
<glyph unicode="&#x2527;" d="M0 512v128h256v768h128v-768h128v-1024h-256v896h-256z" />
<glyph unicode="&#x2528;" d="M0 512v128h256v768h256v-1792h-256v896h-256z" />
<glyph unicode="&#x2529;" d="M0 384v256h256v768h256v-1024h-128v-768h-128v768h-256z" />
<glyph unicode="&#x252a;" d="M0 384v256h256v768h128v-768h128v-1024h-256v768h-256z" />
<glyph unicode="&#x252b;" d="M0 384v256h256v768h256v-1792h-256v768h-256z" />
<glyph unicode="&#x252c;" d="M0 512v128h768v-128h-384v-896h-128v896h-256z" />
<glyph unicode="&#x252d;" d="M0 384v256h768v-128h-384v-896h-128v768h-256z" />
<glyph unicode="&#x252e;" d="M0 512v128h768v-256h-384v-768h-128v896h-256z" />
<glyph unicode="&#x252f;" d="M0 384v256h768v-256h-384v-768h-128v768h-256z" />
<glyph unicode="&#x2530;" d="M0 512v128h768v-128h-256v-896h-256v896h-256z" />
<glyph unicode="&#x2531;" d="M0 384v256h768v-128h-256v-896h-256v768h-256z" />
<glyph unicode="&#x2532;" d="M0 512v128h768v-256h-256v-768h-256v896h-256z" />
<glyph unicode="&#x2533;" d="M0 384v256h768v-256h-256v-768h-256v768h-256z" />
<glyph unicode="&#x2534;" d="M0 512v128h256v768h128v-768h384v-128h-768z" />
<glyph unicode="&#x2535;" d="M0 384v256h256v768h128v-768h384v-128h-384v-128h-384z" />
<glyph unicode="&#x2536;" d="M0 512v128h256v768h128v-768h384v-256h-512v128h-256z" />
<glyph unicode="&#x2537;" d="M0 384v256h256v768h128v-768h384v-256h-768z" />
<glyph unicode="&#x2538;" d="M0 512v128h256v768h256v-768h256v-128h-768z" />
<glyph unicode="&#x2539;" d="M0 384v256h256v768h256v-768h256v-128h-256v-128h-512z" />
<glyph unicode="&#x253a;" d="M0 512v128h256v768h256v-768h256v-256h-512v128h-256z" />
<glyph unicode="&#x253b;" d="M0 384v256h256v768h256v-768h256v-256h-768z" />
<glyph unicode="&#x253c;" d="M0 512v128h256v768h128v-768h384v-128h-384v-896h-128v896h-256z" />
<glyph unicode="&#x253d;" d="M0 384v256h256v768h128v-768h384v-128h-384v-896h-128v768h-256z" />
<glyph unicode="&#x253e;" d="M0 512v128h256v768h128v-768h384v-256h-384v-768h-128v896h-256z" />
<glyph unicode="&#x253f;" d="M0 384v256h256v768h128v-768h384v-256h-384v-768h-128v768h-256z" />
<glyph unicode="&#x2540;" d="M0 512v128h256v768h256v-768h256v-128h-384v-896h-128v896h-256z" />
<glyph unicode="&#x2541;" d="M0 512v128h256v768h128v-768h384v-128h-256v-896h-256v896h-256z" />
<glyph unicode="&#x2542;" d="M0 512v128h256v768h256v-768h256v-128h-256v-896h-256v896h-256z" />
<glyph unicode="&#x2543;" d="M0 384v256h256v768h256v-768h256v-128h-256v-128h-128v-768h-128v768h-256z" />
<glyph unicode="&#x2544;" d="M0 512v128h256v768h256v-768h256v-256h-384v-768h-128v896h-256z" />
<glyph unicode="&#x2545;" d="M0 384v256h256v768h128v-768h384v-128h-256v-896h-256v768h-256z" />
<glyph unicode="&#x2546;" d="M0 512v128h256v768h128v-768h384v-256h-256v-768h-256v896h-256z" />
<glyph unicode="&#x2547;" d="M0 384v256h256v768h256v-768h256v-256h-384v-768h-128v768h-256z" />
<glyph unicode="&#x2548;" d="M0 384v256h256v768h128v-768h384v-256h-256v-768h-256v768h-256z" />
<glyph unicode="&#x2549;" d="M0 384v256h256v768h256v-768h256v-128h-256v-896h-256v768h-256z" />
<glyph unicode="&#x254a;" d="M0 512v128h256v768h256v-768h256v-256h-256v-768h-256v896h-256z" />
<glyph unicode="&#x254b;" d="M0 384v256h256v768h256v-768h256v-256h-256v-768h-256v768h-256z" />
<glyph unicode="&#x254c;" d="M0 512v128h256v-128h-256zM512 512v128h256v-128h-256z" />
<glyph unicode="&#x254d;" d="M0 384v256h256v-256h-256zM512 384v256h256v-256h-256z" />
<glyph unicode="&#x254e;" d="M256 128h128v-512h-128v512zM256 896v512h128v-512h-128z" />
<glyph unicode="&#x254f;" d="M256 128h256v-512h-256v512zM256 896v512h256v-512h-256z" />
<glyph unicode="&#x2550;" d="M0 256v128h768v-128h-768zM0 640v128h768v-128h-768z" />
<glyph unicode="&#x2551;" d="M128 -384v1792h128v-1792h-128zM512 -384v1792h128v-1792h-128z" />
<glyph unicode="&#x2552;" d="M256 -384v1152h512v-128h-384v-256h384v-128h-384v-640h-128z" />
<glyph unicode="&#x2553;" d="M128 -384v1024h640v-128h-128v-896h-128v896h-256v-896h-128z" />
<glyph unicode="&#x2554;" d="M128 -384v1152h640v-128h-512v-1024h-128zM512 -384v768h256v-128h-128v-640h-128z" />
<glyph unicode="&#x2555;" d="M0 256v128h256v256h-256v128h384v-1152h-128v640h-256z" />
<glyph unicode="&#x2556;" d="M0 512v128h640v-1024h-128v896h-256v-896h-128v896h-128z" />
<glyph unicode="&#x2557;" d="M0 256v128h256v-768h-128v640h-128zM0 640v128h640v-1152h-128v1024h-512z" />
<glyph unicode="&#x2558;" d="M256 256v1152h128v-640h384v-128h-384v-256h384v-128h-512z" />
<glyph unicode="&#x2559;" d="M128 512v896h128v-768h256v768h128v-768h128v-128h-640z" />
<glyph unicode="&#x255a;" d="M128 256v1152h128v-1024h512v-128h-640zM512 640v768h128v-640h128v-128h-256z" />
<glyph unicode="&#x255b;" d="M0 256v128h256v256h-256v128h256v640h128v-1152h-384z" />
<glyph unicode="&#x255c;" d="M0 512v128h128v768h128v-768h256v768h128v-896h-640z" />
<glyph unicode="&#x255d;" d="M0 256v128h512v1024h128v-1152h-640zM0 640v128h128v640h128v-768h-256z" />
<glyph unicode="&#x255e;" d="M256 -384v1792h128v-640h384v-128h-384v-256h384v-128h-384v-640h-128z" />
<glyph unicode="&#x255f;" d="M128 -384v1792h128v-1792h-128zM512 -384v1792h128v-768h128v-128h-128v-896h-128z" />
<glyph unicode="&#x2560;" d="M128 -384v1792h128v-1792h-128zM512 -384v768h256v-128h-128v-640h-128zM512 640v768h128v-640h128v-128h-256z" />
<glyph unicode="&#x2561;" d="M0 256v128h256v256h-256v128h256v640h128v-1792h-128v640h-256z" />
<glyph unicode="&#x2562;" d="M0 512v128h128v768h128v-1792h-128v896h-128zM512 -384v1792h128v-1792h-128z" />
<glyph unicode="&#x2563;" d="M0 256v128h256v-768h-128v640h-128zM0 640v128h128v640h128v-768h-256zM512 -384v1792h128v-1792h-128z" />
<glyph unicode="&#x2564;" d="M0 256v128h768v-128h-384v-640h-128v640h-256zM0 640v128h768v-128h-768z" />
<glyph unicode="&#x2565;" d="M0 512v128h768v-128h-128v-896h-128v896h-256v-896h-128v896h-128z" />
<glyph unicode="&#x2566;" d="M0 256v128h256v-768h-128v640h-128zM0 640v128h768v-128h-768zM512 -384v768h256v-128h-128v-640h-128z" />
<glyph unicode="&#x2567;" d="M0 256v128h768v-128h-768zM0 640v128h256v640h128v-640h384v-128h-768z" />
<glyph unicode="&#x2568;" d="M0 512v128h128v768h128v-768h256v768h128v-768h128v-128h-768z" />
<glyph unicode="&#x2569;" d="M0 256v128h768v-128h-768zM0 640v128h128v640h128v-768h-256zM512 640v768h128v-640h128v-128h-256z" />
<glyph unicode="&#x256a;" d="M0 256v128h256v256h-256v128h256v640h128v-640h384v-128h-384v-256h384v-128h-384v-640h-128v640h-256z" />
<glyph unicode="&#x256b;" d="M0 512v128h128v768h128v-768h256v768h128v-768h128v-128h-128v-896h-128v896h-256v-896h-128v896h-128z" />
<glyph unicode="&#x256c;" d="M0 256v128h256v-768h-128v640h-128zM0 640v128h128v640h128v-768h-256zM512 -384v768h256v-128h-128v-640h-128zM512 640v768h128v-640h128v-128h-256z" />
<glyph unicode="&#x256d;" d="M256 -384v768q0 106 74 180q74 76 182 76h256v-128h-256q-54 0 -92 -38q-36 -38 -36 -90v-768h-128z" />
<glyph unicode="&#x256e;" d="M0 512v128h128q106 0 180 -76q76 -74 76 -180v-768h-128v768q0 52 -38 90t-90 38h-128z" />
<glyph unicode="&#x256f;" d="M0 512v128h128q52 0 90 36q38 38 38 92v640h128v-640q0 -108 -76 -182q-74 -74 -180 -74h-128z" />
<glyph unicode="&#x2570;" d="M256 768v640h128v-640q0 -54 36 -92q38 -36 92 -36h256v-128h-256q-108 0 -182 74t-74 182z" />
<glyph unicode="&#x2571;" d="M0 -128l640 1280v256h128v-256l-640 -1280v-256h-128v256z" />
<glyph unicode="&#x2572;" d="M0 1152v256h128v-256l640 -1280v-256h-128v256z" />
<glyph unicode="&#x2573;" d="M0 -128l320 640l-320 640v256h128v-256l256 -512l256 512v256h128v-256l-320 -640l320 -640v-256h-128v256l-256 512l-256 -512v-256h-128v256z" />
<glyph unicode="&#x2574;" d="M0 512v128h384v-128h-384z" />
<glyph unicode="&#x2575;" d="M256 512v896h128v-896h-128z" />
<glyph unicode="&#x2576;" d="M384 512v128h384v-128h-384z" />
<glyph unicode="&#x2577;" d="M256 -384v896h128v-896h-128z" />
<glyph unicode="&#x2578;" d="M0 384v256h384v-256h-384z" />
<glyph unicode="&#x2579;" d="M256 512v896h256v-896h-256z" />
<glyph unicode="&#x257a;" d="M384 384v256h384v-256h-384z" />
<glyph unicode="&#x257b;" d="M256 -384v896h256v-896h-256z" />
<glyph unicode="&#x257c;" d="M0 512v128h768v-256h-384v128h-384z" />
<glyph unicode="&#x257d;" d="M256 -384v1792h128v-896h128v-896h-256z" />
<glyph unicode="&#x257e;" d="M0 384v256h768v-128h-384v-128h-384z" />
<glyph unicode="&#x257f;" d="M256 -384v1792h256v-896h-128v-896h-128z" />
<glyph unicode="&#xe000;" horiz-adv-x="895" d="M0 895h895v-895h-895v895z" />
</font>
</defs>
</svg>
